<svg t="1741926264137" class="icon" viewBox="0 0 1024 1024" version="1.1" xmlns="http://www.w3.org/2000/svg"
     p-id="21160" width="200" height="200">
	<path d="M384.3 952.9c-1.2 0-2.3-0.3-3.4-0.9L141.8 820.3c-2.2-1.2-3.6-3.6-3.6-6.1V271.6c0-2.4 1.3-4.7 3.4-6L459.9 72.2c1.1-0.7 2.4-1 3.6-1 1.2 0 2.4 0.3 3.4 0.9l241.6 136.3c2.2 1.2 3.6 3.6 3.6 6.1v550.7c0 2.5-1.4 4.8-3.6 6.1L387.7 952c-1.1 0.6-2.3 0.9-3.4 0.9z"
	      fill="#B5D6FB" p-id="21161"></path>
	<path d="M463.5 78.1l241.6 136.3v550.7L384.3 945.9 145.2 814.2V271.6L463.5 78.1m0-13.9c-2.5 0-5 0.7-7.3 2L137.9 259.6c-4.2 2.5-6.7 7.1-6.7 11.9v542.6c0 5.1 2.8 9.8 7.2 12.2L377.5 958c2.1 1.2 4.4 1.7 6.7 1.7 2.4 0 4.7-0.6 6.9-1.8L712 777.3c4.4-2.5 7.1-7.1 7.1-12.2V214.5c0-5-2.7-9.7-7.1-12.2L470.4 66c-2.1-1.2-4.5-1.8-6.9-1.8z"
	      fill="#0276F7" p-id="21162"></path>
	<path d="M463.5 78.1L145.2 271.6l239.1 130 320.8-187.1z" fill="#FFFFFF" p-id="21163"></path>
	<path d="M384.3 914.5V401.6" fill="#B5D6FB" p-id="21164"></path>
	<path d="M384.3 921.4c-3.9 0-7-3.1-7-7V401.6c0-3.9 3.1-7 7-7s7 3.1 7 7v512.9c-0.1 3.8-3.2 6.9-7 6.9z" fill="#0276F7"
	      p-id="21165"></path>
	<path d="M666.7 236.9L384.3 401.6" fill="#B5D6FB" p-id="21166"></path>
	<path d="M384.3 408.5c-2.4 0-4.7-1.2-6-3.5-1.9-3.3-0.8-7.6 2.5-9.6l282.4-164.7c3.3-1.9 7.6-0.8 9.6 2.5 1.9 3.3 0.8 7.6-2.5 9.6L387.8 407.6c-1.1 0.6-2.3 0.9-3.5 0.9z"
	      fill="#0276F7" p-id="21167"></path>
	<path d="M175.6 288.1l208.7 113.5" fill="#B5D6FB" p-id="21168"></path>
	<path d="M384.3 408.5c-1.1 0-2.3-0.3-3.3-0.8L172.3 294.2c-3.4-1.8-4.6-6.1-2.8-9.5 1.8-3.4 6.1-4.6 9.5-2.8l208.7 113.5c3.4 1.8 4.6 6.1 2.8 9.5-1.4 2.3-3.8 3.6-6.2 3.6z"
	      fill="#0276F7" p-id="21169"></path>
	<path d="M172.4 741.2l176.4 98.9" fill="#B5D6FB" p-id="21170"></path>
	<path d="M348.8 847.1c-1.2 0-2.3-0.3-3.4-0.9L169 747.3c-3.4-1.9-4.6-6.1-2.7-9.5 1.9-3.4 6.1-4.6 9.5-2.7L352.3 834c3.4 1.9 4.6 6.1 2.7 9.5-1.4 2.3-3.7 3.6-6.2 3.6z"
	      fill="#0276F7" p-id="21171"></path>
	<path d="M172.4 691.7l176.4 98.9" fill="#B5D6FB" p-id="21172"></path>
	<path d="M348.8 797.6c-1.2 0-2.3-0.3-3.4-0.9L169 697.8c-3.4-1.9-4.6-6.1-2.7-9.5 1.9-3.4 6.1-4.6 9.5-2.7l176.4 98.9c3.4 1.9 4.6 6.1 2.7 9.5-1.3 2.3-3.6 3.6-6.1 3.6z"
	      fill="#0276F7" p-id="21173"></path>
	<path d="M172.4 642.3l176.4 98.9" fill="#B5D6FB" p-id="21174"></path>
	<path d="M348.8 748.2c-1.2 0-2.3-0.3-3.4-0.9L169 648.4c-3.4-1.9-4.6-6.1-2.7-9.5 1.9-3.4 6.1-4.6 9.5-2.7l176.4 98.9c3.4 1.9 4.6 6.1 2.7 9.5-1.3 2.3-3.6 3.6-6.1 3.6z"
	      fill="#0276F7" p-id="21175"></path>
	<path d="M137 538.8l247.3 134.9" fill="#B5D6FB" p-id="21176"></path>
	<path d="M133.644 544.944l6.707-12.289 247.276 134.963-6.707 12.289z" fill="#0276F7" p-id="21177"></path>
	<path d="M306.6 431l40.1 20" fill="#B5D6FB" p-id="21178"></path>
	<path d="M346.7 458c-1.1 0-2.1-0.2-3.1-0.7l-40.1-20c-3.5-1.7-4.8-5.9-3.1-9.4 1.7-3.4 5.9-4.8 9.4-3.1l40.1 20c3.5 1.7 4.8 5.9 3.1 9.4-1.2 2.4-3.7 3.8-6.3 3.8z"
	      fill="#0276F7" p-id="21179"></path>
	<path d="M885.8 608.6c-0.1 13.7-6.3 27.4-18.6 39.5-5.7 5.6-12.7 10.9-21.1 15.8-53.4 31-140.1 31-193.7 0.1-8.7-5-16.1-10.6-21.8-16.5-11.3-11.2-17.5-23.6-18.6-36.2v-3.8c0-20.3 13.1-40.5 39.7-55.9 53.4-31 140.1-31 193.7 0 27.1 15.8 40.7 36.5 40.4 57z"
	      fill="#FFFFFF" p-id="21180"></path>
	<path d="M749.2 694.1c-36.3 0-72.6-8-100.3-23.9-9.3-5.4-17.1-11.3-23.3-17.7-12.1-12-19.2-26-20.5-40.4v-4.4c0-23.8 15.3-45.8 43.2-61.9 55.2-32.1 145.2-32.1 200.7 0 28.6 16.5 44.2 38.9 43.9 63-0.2 15.9-7.3 31.2-20.6 44.4-6.3 6.2-13.9 11.8-22.5 16.8-27.8 16-64.2 24.1-100.6 24.1z m-0.7-158.6c-33.8 0-67.6 7.5-93.2 22.4-23.4 13.4-36.3 31.1-36.3 49.8v3.8c1 10.5 6.7 21.5 16.5 31.2 5.4 5.5 12.2 10.7 20.4 15.4 51.6 29.7 135.4 29.7 186.7-0.1 7.6-4.4 14.3-9.4 19.7-14.7 10.6-10.5 16.3-22.5 16.5-34.6 0.3-18.8-12.8-36.8-36.9-50.7-25.8-15.1-59.6-22.5-93.4-22.5z"
	      fill="#0276F7" p-id="21181"></path>
	<path d="M605.1 606h14v5.4h-14zM841.4 796.3c-3.9 0-7-3.1-7-7v-4.6c0-3.9 3.1-7 7-7s7 3.1 7 7v4.6c0 3.9-3.2 7-7 7z"
	      fill="#0276F7" p-id="21182"></path>
	<path d="M885.8 608.6v79.5c0 13.8-6.1 27.8-18.6 40.1-5.7 5.6-12.7 10.9-21.1 15.8-53.4 31-140.1 31-193.7 0-8.7-5-15.9-10.5-21.8-16.3-11.3-11.2-17.5-23.6-18.6-36.2v-80c1.1 12.6 7.3 25 18.6 36.2 5.7 5.9 13.1 11.5 21.8 16.5 53.6 30.8 140.4 30.8 193.7-0.3 8.4-4.9 15.4-10.2 21.1-15.8 12.3-12.1 18.5-25.8 18.6-39.5z"
	      fill="#B5D6FB" p-id="21183"></path>
	<path d="M749.4 774.1c-36.3 0-72.7-8-100.5-24.1-9.1-5.3-17-11.2-23.2-17.4-12.2-12-19.3-26-20.6-40.5v-80.6c0-3.7 2.9-6.8 6.7-7 3.3-0.3 6.9 2.6 7.3 6.4 1 11.1 6.7 22.1 16.5 31.8 5.4 5.5 12.2 10.7 20.4 15.4 51.6 29.7 135.4 29.7 186.7-0.1 7.6-4.4 14.3-9.4 19.7-14.7 10.6-10.5 16.3-22.5 16.5-34.6 0-3.8 3.2-6.9 7-6.9s6.9 3.1 6.9 7v79.5c0 16.1-7.1 31.7-20.6 45.1-6.3 6.2-13.9 11.8-22.5 16.8-27.7 15.8-64 23.9-100.3 23.9zM619 645.2v46.3c1 10.5 6.7 21.5 16.5 31.2 5.4 5.4 12.3 10.6 20.4 15.3 51.6 29.8 135.4 29.8 186.7 0 7.6-4.4 14.3-9.4 19.7-14.7 10.8-10.6 16.5-22.8 16.5-35.1v-42.4c-2 2.5-4.2 5-6.7 7.4-6.3 6.2-13.9 11.8-22.5 16.8-55.2 32.1-145.2 32.1-200.7 0.2-9.3-5.4-17.1-11.3-23.3-17.7-2.4-2.4-4.6-4.8-6.6-7.3z"
	      fill="#0276F7" p-id="21184"></path>
	<path d="M885.8 688.1v81.3c-0.6 19.8-13.8 39.5-39.7 54.6-53.4 31-140.1 31-193.7 0-25-14.5-38.5-33.1-40.4-52.1v-80.4c1.1 12.6 7.3 25 18.6 36.2 5.9 5.9 13.1 11.3 21.8 16.3 53.6 31 140.4 31 193.7 0 8.4-4.9 15.4-10.2 21.1-15.8 12.4-12.3 18.6-26.3 18.6-40.1z"
	      fill="#B5D6FB" p-id="21185"></path>
	<path d="M749.4 854.1c-36.3 0-72.7-8-100.5-24.1-26.2-15.2-41.7-35.6-43.8-57.5v-81.1c0-3.7 2.9-6.8 6.7-7 3.3-0.2 6.9 2.6 7.3 6.4 1 11.1 6.7 22.1 16.5 31.8 5.4 5.4 12.3 10.6 20.4 15.3 51.6 29.8 135.4 29.8 186.7 0 7.6-4.4 14.3-9.4 19.7-14.7 10.8-10.6 16.5-22.8 16.5-35.1 0-3.9 3.1-7 7-7s7 3.1 7 7v81.3c-0.7 23.3-16 44.8-43.1 60.6-27.8 16.1-64.1 24.1-100.4 24.1zM619 725.2v46.7c1.6 16.6 14.7 33.2 36.9 46.1 51.6 29.8 135.4 29.8 186.7 0 22.8-13.3 35.7-30.6 36.2-48.8v-43.5c-2 2.5-4.2 5-6.7 7.4-6.3 6.2-13.9 11.8-22.5 16.8-55.2 32.1-145.3 32.1-200.7 0-9.1-5.3-17-11.2-23.2-17.4-2.4-2.3-4.7-4.8-6.7-7.3z"
	      fill="#0276F7" p-id="21186"></path>
	<path d="M841.4 774.8c-3.9 0-7-3.1-7-7v-79.7c0-3.9 3.1-7 7-7s7 3.1 7 7v79.7c0 3.9-3.2 7-7 7z" fill="#0276F7"
	      p-id="21187"></path>
</svg>