<svg t="1741926243812" class="icon" viewBox="0 0 1024 1024" version="1.1" xmlns="http://www.w3.org/2000/svg"
     p-id="18978" width="200" height="200">
	<path d="M960.2 747.7L901 395c-1.3-7.9-6.9-13.5-13.6-15.7-27.1-57.2-85.1-96.8-152.6-96.8H297.9C204.6 282.4 129 358 129 451.3v49.5c0 93.3 75.6 168.9 168.9 168.9h415l176.5 122.8c33 23.1 77.5-5.1 70.8-44.8z"
	      fill="#5B79FB" p-id="18979"></path>
	<path d="M734.8 610.2H297.9c-93.3 0-168.9-75.6-168.9-168.9v-49.5c0-93.3 75.6-168.9 168.9-168.9h436.9c93.3 0 168.9 75.6 168.9 168.9v49.5c0 93.2-75.6 168.9-168.9 168.9z"
	      fill="#C7D8FF" p-id="18980"></path>
	<path d="M710 339.9m-34.8 0a34.8 34.8 0 1 0 69.6 0 34.8 34.8 0 1 0-69.6 0Z" fill="#5B79FB" p-id="18981"></path>
	<path d="M710 467.5m-34.8 0a34.8 34.8 0 1 0 69.6 0 34.8 34.8 0 1 0-69.6 0Z" fill="#5B79FB" p-id="18982"></path>
	<path d="M650.4 403.7m-34.8 0a34.8 34.8 0 1 0 69.6 0 34.8 34.8 0 1 0-69.6 0Z" fill="#5B79FB" p-id="18983"></path>
	<path d="M769.6 403.7m-34.8 0a34.8 34.8 0 1 0 69.6 0 34.8 34.8 0 1 0-69.6 0Z" fill="#5B79FB" p-id="18984"></path>
	<path d="M554.2 222.8H308.8c-104 0-188.3 84.1-188.7 188L65.6 735.2c-7.5 44.4 42.2 75.8 79.1 50.1l251.7-175.2h14.1c94.3-63.3 156.4-170.9 156.4-293 0.1-32.6-4.4-64.3-12.7-94.3z"
	      fill="#E5ECFF" p-id="18985"></path>
	<path d="M415.5 377.5h-49v-49c0-12.9-10.5-23.4-23.4-23.4h-5.5c-12.9 0-23.4 10.5-23.4 23.4v49h-49c-12.9 0-23.4 10.5-23.4 23.4v5.5c0 12.9 10.5 23.4 23.4 23.4h49v49c0 12.9 10.5 23.4 23.4 23.4h5.5c12.9 0 23.4-10.5 23.4-23.4v-49h49c12.9 0 23.4-10.5 23.4-23.4v-5.5c0.1-12.9-10.4-23.4-23.4-23.4z"
	      fill="#FF7E71" p-id="18986"></path>
</svg>