<svg t="1741926122778" class="icon" viewBox="0 0 1024 1024" version="1.1" xmlns="http://www.w3.org/2000/svg" p-id="3385"
     width="200" height="200">
	<path d="M1014.784 322.048c0-15.872-12.8-28.672-28.672-29.184H896V351.232h90.112c16.384 0 29.184-13.312 28.672-29.184z m-28.16 96.768H896v57.856h90.112c15.872 0 29.184-12.8 29.184-29.184 0-15.36-12.8-28.672-28.672-28.672z m0 125.952H896v57.856h90.112c15.872-0.512 28.672-13.824 28.16-29.696 0-15.36-12.288-28.16-27.648-28.16z m0 125.44H896v57.856h90.112c15.872 0 28.672-13.312 28.672-29.184s-12.8-28.16-28.16-28.672z m-968.192-368.128c-11.264 11.776-10.24 30.72 1.536 41.984 5.12 4.608 11.776 7.68 18.944 7.68h90.624v-58.368h-90.624c-7.68 0-15.36 3.072-20.48 8.704zM10.24 448.512c0 15.872 12.8 28.672 28.672 29.184h90.624v-58.368h-90.624c-15.872 0-28.672 12.8-28.672 28.672v0.512z m7.68 104.96c-5.12 5.632-8.192 12.8-7.68 20.48 0 15.872 12.8 28.672 28.672 28.672h90.112v-57.856h-90.112c-7.68 0-15.36 3.072-20.992 8.704z m0.512 125.44c-11.264 11.776-10.24 30.72 1.536 41.984 5.12 4.608 11.776 7.68 18.944 7.68h90.112v-58.368h-90.624c-7.168 0-14.848 3.072-19.968 8.704z"
	      fill="#C9C9C9" p-id="3386"></path>
	<path d="M863.232 778.24c0 46.592-37.888 84.48-84.48 84.48h-534.528c-46.592 0-84.48-37.888-84.48-84.48V243.712c0-46.592 37.888-84.48 84.48-84.48h534.528c46.592 0 84.48 37.888 84.48 84.48v534.528z"
	      fill="#009944" p-id="3387"></path>
	<path d="M160.256 503.808h331.776c5.12 0 10.752-1.536 14.848-4.096l124.928-91.136c7.68 3.072 16.384 5.12 24.576 5.12 37.888 0 68.608-30.72 68.608-68.096 0-37.888-30.72-68.608-68.096-68.608-37.888 0-68.608 30.72-68.608 68.096 0 9.216 2.048 17.92 5.632 26.624l-110.592 80.384h-323.072v51.712z m702.976 30.72h-331.776c-5.632 0-10.752 1.536-15.36 4.608l-124.928 91.136c-7.68-3.072-16.384-5.12-24.576-5.12-37.888 0-68.608 30.72-68.608 68.096s30.72 68.608 68.096 68.608 68.608-30.72 68.608-68.096c0-9.216-2.048-17.92-5.632-26.624l110.592-80.384h323.072l0.512-52.224z"
	      fill="#FFFFFF" p-id="3388"></path>
</svg>