<svg t="1741926309127" class="icon" viewBox="0 0 1024 1024" version="1.1" xmlns="http://www.w3.org/2000/svg"
     p-id="24352" width="200" height="200">
	<path d="M821.769309 430.638545l-104.373527 99.011491 93.090909-41.723345 104.373527-99.048727-93.090909 41.741963zM613.040873 514.048l-104.354909-130.178327 93.090909-41.723346 104.354909 130.178328-93.090909 41.741963zM508.685964 269.274764l104.373527-99.048728 93.090909-41.704727-104.373527 99.011491-93.090909 41.741964zM356.240291 515.760873l14.987636 36.715054 93.090909-41.723345-14.987636-36.715055-93.090909 41.723346z"
	      fill="#CECEF9" p-id="24353"></path>
	<path d="M371.246545 552.475927L108.637091 801.5872l93.090909-41.704727 262.572218-249.129891-93.090909 41.723345z"
	      fill="#CECEF9" p-id="24354"></path>
	<path d="M108.655709 801.605818l69.576146 86.797964 93.090909-41.741964-69.576146-86.797963-93.090909 41.741963z"
	      fill="#CECEF9" p-id="24355"></path>
	<path d="M178.231855 888.403782l262.572218-249.129891 93.090909-41.741964-262.572218 249.129891-93.090909 41.741964z"
	      fill="#CECEF9" p-id="24356"></path>
	<path d="M440.804073 639.273891l31.390254 21.150254 93.090909-41.723345-31.390254-21.168873-93.090909 41.741964zM821.769309 430.638545l93.090909-41.741963-93.090909 41.723345zM462.568727 771.444364l-232.168727 220.253091 93.090909-41.741964 232.168727-220.253091-93.090909 41.741964zM126.045091 976.114036l-104.354909-130.196945 93.090909-41.741964 104.354909 130.196946-93.090909 41.741963zM21.690182 731.303564l232.168727-220.253091 93.090909-41.741964-232.168727 220.253091-93.090909 41.741964zM737.838545 204.651055l-142.187054 134.907345 93.090909-41.723345L830.929455 162.909091l-93.09091 41.741964z"
	      fill="#CECEF9" p-id="24357"></path>
	<path d="M595.651491 339.5584l69.557527 86.797964 93.090909-41.723346-69.557527-86.797963-93.090909 41.723345z"
	      fill="#CECEF9" p-id="24358"></path>
	<path d="M665.227636 426.356364l142.187055-134.907346 93.090909-41.741963-142.187055 134.925963-93.090909 41.723346zM807.414691 291.449018l93.090909-41.741963-93.090909 41.741963zM717.395782 529.650036a60.695273 60.695273 0 0 1-15.062109 10.519273l93.090909-41.741964c5.399273-2.625164 10.4448-6.125382 15.080727-10.500654l-93.090909 41.723345z"
	      fill="#CECEF9" p-id="24359"></path>
	<path d="M702.333673 540.169309c-28.243782 13.851927-65.089164 4.096-89.2928-26.102691l93.090909-41.741963c24.203636 30.198691 61.049018 39.973236 89.2928 26.10269l-93.090909 41.741964zM508.685964 383.869673c-28.820945-35.951709-28.820945-87.263418 0-114.613528l93.090909-41.723345c-28.820945 27.331491-28.820945 78.6432 0 114.594909l-93.090909 41.741964zM613.059491 170.244655c-50.324945-15.378618-102.437236-13.889164-148.498618 5.62269l93.090909-41.741963c46.061382-19.493236 98.173673-21.001309 148.498618-5.622691l-93.090909 41.741964z"
	      fill="#CECEF9" p-id="24360"></path>
	<path d="M464.560873 175.867345a201.299782 201.299782 0 0 0-60.229818 39.600873l93.090909-41.723345a201.299782 201.299782 0 0 1 60.229818-39.619491l-93.090909 41.741963z"
	      fill="#CECEF9" p-id="24361"></path>
	<path d="M404.331055 215.468218c-75.664291 71.810327-91.787636 193.293964-48.090764 300.311273l93.090909-41.741964c-43.696873-107.017309-27.592145-228.500945 48.090764-300.311272l-93.090909 41.741963zM472.194327 660.424145c69.538909 46.880582 151.384436 57.641891 219.880728 28.57891l93.090909-41.723346c-68.496291 29.044364-150.341818 18.283055-219.880728-28.578909l-93.090909 41.723345z"
	      fill="#CECEF9" p-id="24362"></path>
	<path d="M692.075055 689.003055a201.262545 201.262545 0 0 0 60.09949-39.545019l93.09091-41.723345a201.281164 201.281164 0 0 1-60.099491 39.545018l-93.090909 41.723346z"
	      fill="#CECEF9" p-id="24363"></path>
	<path d="M752.174545 649.458036c56.878545-53.955491 80.114036-135.9872 69.594764-218.838109l93.090909-41.723345c10.519273 82.850909-12.716218 164.864-69.594763 218.819491l-93.09091 41.741963zM807.414691 291.449018c3.016145-2.8672 6.292945-5.175855 9.755927-6.981818l93.090909-41.723345c-3.462982 1.787345-6.739782 4.096-9.755927 6.9632l-93.090909 41.741963z"
	      fill="#CECEF9" p-id="24364"></path>
	<path d="M817.152 284.485818c25.339345-13.163055 60.229818 1.936291 73.616291 35.672437l93.090909-41.741964c-13.386473-33.736145-48.276945-48.816873-73.597673-35.672436l-93.090909 41.723345zM890.786909 320.158255c58.945164 148.573091 36.026182 316.416-69.036218 416.097745l93.090909-41.741964c105.0624-99.663127 127.981382-267.506036 69.036218-416.079127l-93.090909 41.723346z"
	      fill="#CECEF9" p-id="24365"></path>
	<path d="M821.750691 736.256a282.475055 282.475055 0 0 1-76.613818 52.056436l93.090909-41.741963a282.437818 282.437818 0 0 0 76.613818-52.037818l-93.090909 41.704727z"
	      fill="#CECEF9" p-id="24366"></path>
	<path d="M745.118255 788.293818c-86.984145 39.973236-190.389527 32.954182-282.568146-16.849454l93.090909-41.741964c92.178618 49.803636 195.584 56.841309 282.568146 16.868073l-93.090909 41.741963zM230.4 991.697455c-4.598691 4.375273-9.681455 7.875491-15.062109 10.500654l93.090909-41.723345c5.399273-2.643782 10.463418-6.144 15.080727-10.519273l-93.090909 41.741964z"
	      fill="#CECEF9" p-id="24367"></path>
	<path d="M215.337891 1002.216727c-28.243782 13.851927-65.089164 4.096-89.2928-26.102691l93.090909-41.741963c24.203636 30.198691 61.049018 39.954618 89.2928 26.102691l-93.090909 41.741963zM21.690182 845.898473c-28.820945-35.933091-28.820945-87.2448 0-114.594909l93.090909-41.723346c-28.820945 27.331491-28.820945 78.6432 0 114.594909l-93.090909 41.723346zM253.840291 511.050473c-43.156945-139.654982-16.253673-290.182982 80.914618-382.380218l93.090909-41.723346c-97.186909 92.197236-124.071564 242.706618-80.914618 382.3616l-93.090909 41.741964zM334.754909 128.670255a283.2384 283.2384 0 0 1 68.514909-48.165237l93.090909-41.723345a283.2384 283.2384 0 0 0-68.514909 48.165236l-93.090909 41.723346z"
	      fill="#CECEF9" p-id="24368"></path>
	<path d="M403.269818 80.505018c97.782691-48.835491 217.963055-36.621964 319.767273 30.384873l93.090909-41.741964C714.323782 2.159709 594.143418-10.053818 496.360727 38.781673l-93.090909 41.723345zM723.037091 110.889891c32.861091 21.597091 39.973236 69.874036 14.801454 93.761164l93.09091-41.741964c25.171782-23.868509 18.059636-72.145455-14.801455-93.761164l-93.090909 41.741964z"
	      fill="#CECEF9" p-id="24369"></path>
	<path d="M821.769309 430.638545l-104.373527 99.011491c-28.820945 27.350109-75.533964 20.368291-104.354909-15.583418l-104.354909-130.196945c-28.820945-35.951709-28.820945-87.263418 0-114.594909l104.373527-99.048728c-74.007273-22.602473-151.849891-8.713309-208.728436 45.242182-75.682909 71.791709-91.787636 193.293964-48.090764 300.311273l14.987636 36.696436-262.572218 249.111273 69.576146 86.816582 262.572218-249.129891 31.390254 21.150254c91.489745 61.682036 204.315927 60.8256 279.980218-10.966109 56.878545-53.955491 80.114036-135.9872 69.594764-218.838109z m-14.354618-139.189527c25.171782-23.887127 68.142545-9.644218 83.372218 28.709237 58.945164 148.573091 36.026182 316.416-69.036218 416.097745-97.186909 92.197236-237.903127 100.724364-359.200582 35.188364l-232.150109 220.253091c-28.802327 27.331491-75.533964 20.349673-104.354909-15.602037l-104.354909-130.178327c-28.820945-35.970327-28.820945-87.263418 0-114.613527l232.168727-220.253091c-43.194182-139.654982-16.272291-290.182982 80.896-382.380218C439.817309 28.988509 595.781818 27.126691 723.037091 110.889891c32.842473 21.597091 39.973236 69.874036 14.801454 93.761164l-142.187054 134.907345L665.227636 426.356364l142.187055-134.907346z"
	      fill="#4E5969" p-id="24370"></path>
</svg>